<svg width="16" height="16" viewBox="0 0 16 16" fill="none" xmlns="http://www.w3.org/2000/svg">
<path d="M13.894 2.55413L12.2138 0.875486C12.0953 0.75644 11.9544 0.661986 11.7993 0.597548C11.6441 0.53311 11.4778 0.49996 11.3098 0.5C10.9675 0.5 10.6456 0.634102 10.4042 0.875486L8.59625 2.6835C8.47721 2.80202 8.38276 2.9429 8.31832 3.09803C8.25388 3.25317 8.22073 3.41951 8.22077 3.5875C8.22077 3.92985 8.35487 4.2517 8.59625 4.49308L9.91832 5.81517C9.60885 6.49729 9.1786 7.11783 8.64831 7.64684C8.11936 8.17842 7.49889 8.61025 6.81667 8.9216L5.4946 7.59951C5.37608 7.48047 5.2352 7.38601 5.08007 7.32158C4.92493 7.25714 4.75859 7.22399 4.59061 7.22403C4.24826 7.22403 3.92642 7.35813 3.68504 7.59951L1.87548 9.40595C1.75629 9.52469 1.66176 9.66583 1.59732 9.82124C1.53288 9.97666 1.4998 10.1433 1.5 10.3115C1.5 10.6539 1.6341 10.9757 1.87548 11.2171L3.55252 12.8942C3.93746 13.2807 4.46913 13.5 5.015 13.5C5.13016 13.5 5.2406 13.4905 5.34946 13.4716C7.47612 13.1214 9.58544 11.9902 11.2877 10.2894C12.9884 8.59029 14.118 6.48252 14.473 4.34951C14.5803 3.69794 14.3641 3.02743 13.894 2.55413Z" fill="#1A1A1A"/>
</svg>
