<svg width="1200" height="269" viewBox="0 0 1200 269" fill="none" xmlns="http://www.w3.org/2000/svg">
<path d="M1090.42 167.092C1088.06 155.166 1083.76 144.073 1082.55 133.039C1082.29 130.657 1080.4 128.657 1078.3 128.822C1076.19 128.987 1071.62 132.01 1070.45 141.318C1069.59 148.056 1075.1 156.893 1072.28 159.733C1069.46 162.573 1092.5 168.4 1090.42 167.092Z" fill="#F5C1C7"/>
<path d="M1016.82 77.8568C1011.66 79.4611 1007.64 102.661 1006.04 109.543C996.284 151.554 982.922 200.239 981.736 205.344C980.253 211.726 982.723 212.86 985.719 214.677C988.714 216.494 1048.25 230.886 1053.41 229.282C1057.53 227.998 1060.02 218.486 1060.02 218.486C1069.62 178.121 1086.28 104.866 1086.55 101.343C1086.89 96.9375 1087.51 94.2786 1085.16 92.6124C1082.81 90.9462 1075.46 89.2387 1071.79 88.385C1055.19 84.3408 1024.93 75.3357 1016.82 77.8568Z" fill="#5992E8"/>
<path opacity="0.4" d="M1048.02 120.869C1049.95 122.829 1050.71 124.67 1050.6 127.419C1050.41 132.609 1043.38 134.946 1038.2 134.635C1037.85 134.614 1037.51 134.575 1037.18 134.515C1034.62 134.035 1031.97 128.881 1032.89 124.855C1034.17 119.2 1043.17 117.009 1047.72 120.605C1047.83 120.689 1047.92 120.777 1048.02 120.869Z" fill="#FAF8F9"/>
<path opacity="0.4" d="M1044.89 114.739C1043.86 116.14 1042.01 117.241 1040.88 117.536C1040.46 117.644 1040.06 117.462 1039.73 117.19C1039.52 117.012 1039.33 116.792 1039.3 116.513C1039.27 116.026 1039.4 115.185 1040.05 114.011C1040.65 112.929 1042.45 112.097 1044.09 111.564C1045.31 111.167 1046.19 111.986 1045.72 113.177C1045.5 113.731 1045.22 114.294 1044.89 114.739Z" fill="#FAF8F9"/>
<circle opacity="0.4" cx="1072.04" cy="103.377" r="3.62998" transform="rotate(37.0464 1072.04 103.377)" fill="#FAF8F9"/>
<path d="M1112.17 208.614C1090.86 189.995 1094.29 176.976 1090.46 166.954C1088.22 161.077 1077.98 151.115 1075.94 159.991C1075 164.093 1063.59 157.875 1061.51 156.567C1055.3 152.661 1048.1 146.544 1042.91 142.628C1038.46 139.27 1033.19 134.117 1032.43 140.119C1031.66 146.121 1043.7 159.489 1047.06 163.947C1050.42 168.406 1053.78 172.865 1048.44 174.327C1043.1 175.79 1022.17 155.039 1015.34 152.772C1008.51 150.505 1005.04 152.696 1017.65 167.45C1030.25 182.203 1032.01 189.582 1030.88 190.718C1029.76 191.854 1028.63 192.99 1015.26 184.238C1001.89 175.486 992.631 173.058 990.941 174.762C989.251 176.466 990.466 178.525 991.957 180.276C996.446 185.552 1015.88 200.62 1017.27 203.133C1018.3 204.97 1016.31 205.575 1014.93 205.498C1002.02 204.781 988.717 201.85 986.937 202.338C985.156 202.825 983.557 205.745 986.826 208.988C988.982 211.127 998.48 216.416 1003.28 218.549C1014.88 225.166 1062.78 248.632 1066.75 249.863C1071.7 251.401 1062.55 246.877 1067.68 243.931C1077.58 238.255 1082.77 232.697 1089.63 224.701C1095.59 217.756 1133.49 227.234 1112.17 208.614Z" fill="#F5C1C7"/>
<path d="M1160.32 232.662C1141.17 223.57 1105.13 202.563 1099.78 194.302C1099.71 194.174 1099.63 194.047 1099.55 193.919C1099.62 194.044 1099.7 194.171 1099.78 194.302C1111.56 214.628 1047.57 236.645 1065.56 248.261C1083.66 259.949 1221.93 326.054 1225.1 308.007C1226.95 297.416 1249.31 303.272 1252.01 293.006C1255.2 280.883 1280.77 278.857 1275.63 271.593C1270.49 264.328 1179.79 241.898 1160.32 232.662Z" fill="#F5C1C7"/>
<path d="M104.795 130.218C98.9136 146.327 94.9879 165.653 105.348 167.512C115.707 169.37 114.322 146.244 126.055 140.56C137.789 134.877 156.942 146.634 163.497 147.997C170.052 149.361 177.308 151.733 176.7 134.822C176.092 117.911 170.476 63.4865 169.043 49.3156C167.61 35.1447 156.281 34.4612 145.517 41.277C134.752 48.0928 54.3434 105.832 47.8639 113.576C41.3845 121.32 41.6582 124.158 47.8219 125.263C53.9857 126.369 73.1823 132.219 83.6415 124.598C99.6497 112.934 133.657 71.9232 139.136 73.193C144.488 74.4331 109.372 117.682 104.795 130.218Z" fill="#5992E8"/>
<path d="M8.76829 174.438C4.16404 177.132 -0.609453 180.986 1.50506 183.486C3.61958 185.986 7.87372 180.168 11.8132 181.133C15.7527 182.097 18.012 188.714 19.3127 190.34C20.6135 191.967 21.8822 193.975 25.0902 189.801C28.2982 185.627 37.745 171.468 40.2118 167.787C42.6787 164.107 40.0987 161.696 36.1669 161.195C32.2351 160.694 1.51174 158.587 -1.57701 159.159C-4.66577 159.73 -5.16302 160.464 -3.90484 161.952C-2.64667 163.439 0.794284 168.648 4.81259 168.896C10.9627 169.274 27.2467 166.189 28.3082 167.58C29.3451 168.938 12.3515 172.34 8.76829 174.438Z" fill="#5992E8"/>
<path d="M247.169 20.4142C247.629 23.4757 248.677 26.8781 250.48 26.2772C252.282 25.6763 250.064 22.1307 251.432 20.2157C252.801 18.3007 256.852 18.5086 258.009 18.1582C259.166 17.8077 260.521 17.5565 258.963 14.9287C257.405 12.3009 251.811 4.16041 250.359 2.03824C248.907 -0.0839237 247.052 0.78697 245.935 2.79767C244.818 4.80838 237.064 20.9098 236.707 22.6972C236.349 24.4847 236.638 24.9108 237.71 24.5533C238.783 24.1957 242.331 23.4638 243.33 21.3518C244.859 18.1194 246.704 8.68007 247.682 8.40771C248.638 8.14168 246.81 18.0316 247.169 20.4142Z" fill="#5992E8"/>
</svg>
