<svg width="56" height="56" viewBox="0 0 56 56" fill="none" xmlns="http://www.w3.org/2000/svg">
<rect x="0.0045166" width="55.9994" height="55.9994" rx="13.3311" fill="#F9F9F9"/>
<path d="M37.1699 30.6259C39.1919 32.3907 39.6123 33.0208 39.681 33.1283C40.5189 34.4346 38.7518 34.5937 38.7518 34.5937H35.0277C35.0277 34.5937 34.1211 34.6035 33.3465 34.0987C32.0838 33.2856 30.7614 31.7092 29.8322 31.9829C29.0521 32.2121 29.0594 33.2483 29.0594 34.1343C29.0594 34.4515 28.7819 34.5937 28.1555 34.5937C27.5291 34.5937 27.2688 34.5937 26.9913 34.5937C24.9512 34.5937 22.7376 33.9183 20.5294 31.6496C17.4055 28.4425 14.6658 21.9821 14.6658 21.9821C14.6658 21.9821 14.504 21.6569 14.6803 21.4587C14.8801 21.2365 15.4233 21.265 15.4233 21.265L19.0343 21.2641C19.0343 21.2641 19.3742 21.3272 19.6182 21.496C19.8198 21.6346 19.9319 21.8995 19.9319 21.8995C19.9319 21.8995 20.5384 23.8687 21.3112 25.1243C22.8207 27.5752 23.523 27.6374 24.0355 27.3735C24.784 26.9914 24.5399 24.3859 24.5399 24.3859C24.5399 24.3859 24.5734 23.2671 24.1829 22.7685C23.8819 22.3829 23.3061 22.1776 23.0548 22.1456C22.8514 22.1198 23.1913 21.7697 23.6243 21.5698C24.2028 21.3165 24.99 21.2516 26.3477 21.2641C27.4043 21.2739 27.7089 21.3361 28.1211 21.4294C29.3676 21.712 29.0594 22.4575 29.0594 25.0755C29.0594 25.9143 28.9418 27.0936 29.5854 27.4846C29.8629 27.6534 30.8138 27.8596 32.5059 25.1581C33.3094 23.8767 33.9485 21.7511 33.9485 21.7511C33.9485 21.7511 34.0805 21.5173 34.2856 21.4018C34.4953 21.2836 34.489 21.2863 34.7765 21.2863C35.0639 21.2863 37.9464 21.2641 38.5791 21.2641C39.2109 21.2641 39.8039 21.257 39.906 21.6213C40.0525 22.1447 39.4396 23.938 37.8867 25.8841C35.3351 29.0779 35.0521 28.7793 37.1699 30.6259Z" fill="#36BA5F"/>
</svg>
