<svg width="56" height="56" viewBox="0 0 56 56" fill="none" xmlns="http://www.w3.org/2000/svg">
<rect width="55.9994" height="55.9994" rx="13.3311" fill="#F9F9F9"/>
<path fill-rule="evenodd" clip-rule="evenodd" d="M23.6445 18.1994C20.6379 18.1994 18.1998 20.6375 18.1998 23.6441V32.3556C18.1998 35.3622 20.6379 37.8003 23.6445 37.8003H32.356C35.3625 37.8003 37.8007 35.3622 37.8007 32.3556V23.6441C37.8007 20.6375 35.3625 18.1994 32.356 18.1994H23.6445ZM35.6137 21.4661C35.6137 20.865 35.1259 20.3771 34.5248 20.3771C33.9237 20.3771 33.4358 20.865 33.4358 21.4661C33.4358 22.0672 33.9237 22.555 34.5248 22.555C35.1259 22.555 35.6137 22.0672 35.6137 21.4661ZM33.4481 27.9999C33.4481 24.9933 31.0099 22.5552 28.0034 22.5552C24.9968 22.5552 22.5587 24.9933 22.5587 27.9999C22.5587 31.0064 24.9968 33.4446 28.0034 33.4446C31.0099 33.4446 33.4481 31.0064 33.4481 27.9999ZM24.7313 27.9987C24.7313 26.1945 26.1939 24.7319 27.9981 24.7319C29.8023 24.7319 31.2649 26.1945 31.2649 27.9987C31.2649 29.8029 29.8023 31.2655 27.9981 31.2655C26.1939 31.2655 24.7313 29.8029 24.7313 27.9987Z" fill="#36BA5F"/>
</svg>
